# Blender v2.80 (sub 75) OBJ File: ''
# www.blender.org
mtllib untitled.mtl
o Torus.002
v 0.673594 0.003323 -0.180489
v 0.611693 0.083537 -0.163903
v 0.476559 0.083537 -0.127694
v 0.411441 0.003323 -0.110245
v 0.603928 0.003323 -0.348678
v 0.548429 0.083537 -0.316635
v 0.427271 0.083537 -0.246685
v 0.368888 0.003323 -0.212978
v 0.493105 0.003323 -0.493105
v 0.447790 0.083537 -0.447790
v 0.348866 0.083537 -0.348866
v 0.301196 0.003323 -0.301196
v 0.348678 0.003323 -0.603928
v 0.316635 0.083537 -0.548429
v 0.246685 0.083537 -0.427271
v 0.212977 0.003323 -0.368888
v 0.180489 0.003323 -0.673594
v 0.163903 0.083537 -0.611693
v 0.127694 0.083537 -0.476559
v 0.110245 0.003323 -0.411441
v -0.180489 0.003323 -0.673594
v -0.163902 0.083537 -0.611693
v -0.127694 0.083537 -0.476559
v -0.110245 0.003323 -0.411441
v -0.348678 0.003323 -0.603928
v -0.316635 0.083537 -0.548429
v -0.246685 0.083537 -0.427271
v -0.212977 0.003323 -0.368888
v -0.493105 0.003323 -0.493105
v -0.447790 0.083537 -0.447790
v -0.348866 0.083537 -0.348866
v -0.301196 0.003323 -0.301196
v -0.603928 0.003323 -0.348678
v -0.548429 0.083537 -0.316636
v -0.427271 0.083537 -0.246685
v -0.368888 0.003323 -0.212978
v -0.673594 0.003323 -0.180489
v -0.611693 0.083537 -0.163902
v -0.476559 0.083537 -0.127694
v -0.411441 0.003323 -0.110245
v -0.673594 0.003323 0.180489
v -0.611693 0.083537 0.163902
v -0.476559 0.083537 0.127694
v -0.411441 0.003323 0.110245
v -0.603928 0.003323 0.348678
v -0.548429 0.083537 0.316635
v -0.427271 0.083537 0.246685
v -0.368888 0.003323 0.212977
v -0.493105 0.003323 0.493105
v -0.447790 0.083537 0.447790
v -0.348866 0.083537 0.348866
v -0.301196 0.003323 0.301196
v -0.348678 0.003323 0.603928
v -0.316635 0.083537 0.548429
v -0.246685 0.083537 0.427271
v -0.212977 0.003323 0.368888
v -0.180489 0.003323 0.673594
v -0.163903 0.083537 0.611693
v -0.127694 0.083537 0.476559
v -0.110245 0.003323 0.411441
v 0.180489 0.003323 0.673594
v 0.163902 0.083537 0.611693
v 0.127693 0.083537 0.476559
v 0.110245 0.003323 0.411441
v 0.348678 0.003323 0.603928
v 0.316635 0.083537 0.548429
v 0.246685 0.083537 0.427271
v 0.212977 0.003323 0.368888
v 0.493105 0.003323 0.493105
v 0.447790 0.083537 0.447790
v 0.348865 0.083537 0.348866
v 0.301196 0.003323 0.301196
v 0.603928 0.003323 0.348678
v 0.548429 0.083537 0.316635
v 0.427271 0.083537 0.246685
v 0.368888 0.003323 0.212978
v 0.673594 0.003323 0.180489
v 0.611693 0.083537 0.163902
v 0.476559 0.083537 0.127694
v 0.411441 0.003323 0.110245
vt 0.583333 0.200000
vt 0.583333 0.600000
vt 0.541667 0.600000
vt 0.541667 0.200000
vt 0.583333 0.800000
vt 0.541667 0.800000
vt 0.583333 1.000000
vt 0.541667 1.000000
vt 0.541667 0.000000
vt 0.583333 0.000000
vt 0.625000 0.200000
vt 0.625000 0.600000
vt 0.625000 0.800000
vt 0.625000 1.000000
vt 0.625000 0.000000
vt 0.666667 0.200000
vt 0.666667 0.600000
vt 0.666667 0.800000
vt 0.666667 1.000000
vt 0.666667 0.000000
vt 0.708333 0.200000
vt 0.708333 0.600000
vt 0.708333 0.800000
vt 0.708333 1.000000
vt 0.708333 0.000000
vt 0.833333 0.200000
vt 0.833333 0.600000
vt 0.791667 0.600000
vt 0.791667 0.200000
vt 0.833333 0.800000
vt 0.791667 0.800000
vt 0.833333 1.000000
vt 0.791667 1.000000
vt 0.791667 0.000000
vt 0.833333 0.000000
vt 0.875000 0.200000
vt 0.875000 0.600000
vt 0.875000 0.800000
vt 0.875000 1.000000
vt 0.875000 0.000000
vt 0.916667 0.200000
vt 0.916667 0.600000
vt 0.916667 0.800000
vt 0.916667 1.000000
vt 0.916667 0.000000
vt 0.958333 0.200000
vt 0.958333 0.600000
vt 0.958333 0.800000
vt 0.958333 1.000000
vt 0.958333 0.000000
vt 0.083333 0.200000
vt 0.083333 0.600000
vt 0.041667 0.600000
vt 0.041667 0.200000
vt 0.083333 0.800000
vt 0.041667 0.800000
vt 0.083333 1.000000
vt 0.041667 1.000000
vt 0.041667 0.000000
vt 0.083333 0.000000
vt 0.125000 0.200000
vt 0.125000 0.600000
vt 0.125000 0.800000
vt 0.125000 1.000000
vt 0.125000 0.000000
vt 0.166667 0.200000
vt 0.166667 0.600000
vt 0.166667 0.800000
vt 0.166667 1.000000
vt 0.166667 0.000000
vt 0.208333 0.200000
vt 0.208333 0.600000
vt 0.208333 0.800000
vt 0.208333 1.000000
vt 0.208333 0.000000
vt 0.458333 0.600000
vt 0.458333 0.200000
vt 0.458333 0.000000
vt 0.458333 0.800000
vt 0.333333 0.200000
vt 0.333333 0.600000
vt 0.291667 0.600000
vt 0.291667 0.200000
vt 0.333333 0.800000
vt 0.291667 0.800000
vt 0.333333 1.000000
vt 0.291667 1.000000
vt 0.291667 0.000000
vt 0.333333 0.000000
vt 0.375000 0.200000
vt 0.375000 0.600000
vt 0.375000 0.800000
vt 0.375000 1.000000
vt 0.375000 0.000000
vt 0.416667 0.200000
vt 0.416667 0.600000
vt 0.416667 0.800000
vt 0.416667 1.000000
vt 0.416667 0.000000
vt 0.458333 1.000000
vn 0.0000 -1.0000 0.0000
vn 0.7242 0.6209 -0.3000
vn 0.0000 1.0000 0.0000
vn -0.7098 0.6401 0.2940
vn 0.6219 0.6209 -0.4772
vn -0.6095 0.6401 0.4677
vn 0.4772 0.6209 -0.6219
vn -0.4677 0.6401 0.6095
vn 0.3000 0.6209 -0.7242
vn -0.2940 0.6401 0.7098
vn -0.3000 0.6209 -0.7242
vn 0.2940 0.6401 0.7098
vn -0.4772 0.6209 -0.6219
vn 0.4677 0.6401 0.6095
vn -0.6219 0.6209 -0.4772
vn 0.6095 0.6401 0.4677
vn -0.7242 0.6209 -0.3000
vn 0.7098 0.6401 0.2940
vn -0.7242 0.6209 0.3000
vn 0.7098 0.6401 -0.2940
vn -0.6219 0.6209 0.4772
vn 0.6095 0.6401 -0.4677
vn -0.4772 0.6209 0.6219
vn 0.4677 0.6401 -0.6095
vn -0.3000 0.6209 0.7242
vn 0.2940 0.6401 -0.7098
vn 0.2588 0.0000 -0.9659
vn -0.9659 -0.0000 -0.2588
vn 0.9659 -0.0000 -0.2588
vn 0.3000 0.6209 0.7242
vn -0.2940 0.6401 -0.7098
vn 0.4772 0.6209 0.6219
vn -0.4677 0.6401 -0.6095
vn 0.6219 0.6209 0.4772
vn -0.6095 0.6401 -0.4677
vn 0.7242 0.6209 0.3000
vn -0.7098 0.6401 -0.2940
vn -0.2588 -0.0000 0.9659
vn -0.2588 -0.0000 -0.9659
vn 0.9659 0.0000 0.2588
vn -0.9659 0.0000 0.2588
vn 0.2588 0.0000 0.9659
usemtl None
s off
f 8/1/1 5/2/1 1/3/1 4/4/1
f 1/3/2 5/2/2 6/5/2 2/6/2
f 2/6/3 6/5/3 7/7/3 3/8/3
f 3/9/4 7/10/4 8/1/4 4/4/4
f 12/11/1 9/12/1 5/2/1 8/1/1
f 5/2/5 9/12/5 10/13/5 6/5/5
f 6/5/3 10/13/3 11/14/3 7/7/3
f 7/10/6 11/15/6 12/11/6 8/1/6
f 16/16/1 13/17/1 9/12/1 12/11/1
f 9/12/7 13/17/7 14/18/7 10/13/7
f 10/13/3 14/18/3 15/19/3 11/14/3
f 11/15/8 15/20/8 16/16/8 12/11/8
f 20/21/1 17/22/1 13/17/1 16/16/1
f 13/17/9 17/22/9 18/23/9 14/18/9
f 14/18/3 18/23/3 19/24/3 15/19/3
f 15/20/10 19/25/10 20/21/10 16/16/10
f 28/26/1 25/27/1 21/28/1 24/29/1
f 21/28/11 25/27/11 26/30/11 22/31/11
f 22/31/3 26/30/3 27/32/3 23/33/3
f 23/34/12 27/35/12 28/26/12 24/29/12
f 32/36/1 29/37/1 25/27/1 28/26/1
f 25/27/13 29/37/13 30/38/13 26/30/13
f 26/30/3 30/38/3 31/39/3 27/32/3
f 27/35/14 31/40/14 32/36/14 28/26/14
f 36/41/1 33/42/1 29/37/1 32/36/1
f 29/37/15 33/42/15 34/43/15 30/38/15
f 30/38/3 34/43/3 35/44/3 31/39/3
f 31/40/16 35/45/16 36/41/16 32/36/16
f 40/46/1 37/47/1 33/42/1 36/41/1
f 33/42/17 37/47/17 38/48/17 34/43/17
f 34/43/3 38/48/3 39/49/3 35/44/3
f 35/45/18 39/50/18 40/46/18 36/41/18
f 48/51/1 45/52/1 41/53/1 44/54/1
f 41/53/19 45/52/19 46/55/19 42/56/19
f 42/56/3 46/55/3 47/57/3 43/58/3
f 43/59/20 47/60/20 48/51/20 44/54/20
f 52/61/1 49/62/1 45/52/1 48/51/1
f 45/52/21 49/62/21 50/63/21 46/55/21
f 46/55/3 50/63/3 51/64/3 47/57/3
f 47/60/22 51/65/22 52/61/22 48/51/22
f 56/66/1 53/67/1 49/62/1 52/61/1
f 49/62/23 53/67/23 54/68/23 50/63/23
f 50/63/3 54/68/3 55/69/3 51/64/3
f 51/65/24 55/70/24 56/66/24 52/61/24
f 60/71/1 57/72/1 53/67/1 56/66/1
f 53/67/25 57/72/25 58/73/25 54/68/25
f 54/68/3 58/73/3 59/74/3 55/69/3
f 55/70/26 59/75/26 60/71/26 56/66/26
f 77/76/27 80/77/27 79/78/27 78/79/27
f 17/22/28 20/21/28 19/25/28 18/23/28
f 21/28/29 22/31/29 23/34/29 24/29/29
f 68/80/1 65/81/1 61/82/1 64/83/1
f 61/82/30 65/81/30 66/84/30 62/85/30
f 62/85/3 66/84/3 67/86/3 63/87/3
f 63/88/31 67/89/31 68/80/31 64/83/31
f 72/90/1 69/91/1 65/81/1 68/80/1
f 65/81/32 69/91/32 70/92/32 66/84/32
f 66/84/3 70/92/3 71/93/3 67/86/3
f 67/89/33 71/94/33 72/90/33 68/80/33
f 76/95/1 73/96/1 69/91/1 72/90/1
f 69/91/34 73/96/34 74/97/34 70/92/34
f 70/92/3 74/97/3 75/98/3 71/93/3
f 71/94/35 75/99/35 76/95/35 72/90/35
f 80/77/1 77/76/1 73/96/1 76/95/1
f 73/96/36 77/76/36 78/79/36 74/97/36
f 74/97/3 78/79/3 79/100/3 75/98/3
f 75/99/37 79/78/37 80/77/37 76/95/37
f 37/47/38 40/46/38 39/50/38 38/48/38
f 41/53/39 42/56/39 43/59/39 44/54/39
f 57/72/40 60/71/40 59/75/40 58/73/40
f 61/82/41 62/85/41 63/88/41 64/83/41
f 1/3/42 2/6/42 3/9/42 4/4/42
